<svg xmlns="http://www.w3.org/2000/svg" fill="none" viewBox="0 0 16 16" id="Paperclip-1--Streamline-Sharp-Remix" height="16" width="16">
  <desc>
    Paperclip 1 Streamline Icon: https://streamlinehq.com
  </desc>
  <g id="Remix/Interface Essential/paperclip-1--attachment-link-paperclip-unlink">
    <path id="Vector 1471 (Stroke)" fill="#000000" fill-rule="evenodd" d="M6.519333333333333 2.097293333333333c2.1306666666666665 -2.1297235333333333 5.585066666666666 -2.1297235333333333 7.7157333333333336 0 2.130933333333333 2.1299266666666665 2.130933333333333 5.583373333333332 0 7.713306666666666l-5.447933333333333 5.4454666666666665 -1.1782 -1.1787999999999998 5.447933333333333 -5.4454666666666665c1.4796666666666667 -1.4789333333333332 1.4796666666666667 -3.876733333333333 0 -5.3557266666666665 -1.4798666666666667 -1.4792066666666666 -3.8793999999999995 -1.4792066666666666 -5.359266666666667 0L2.4917666666666665 8.479533333333332c-0.8779133333333333 0.8774666666666666 -0.8779133333333333 2.3000666666666665 0 3.1775333333333333 0.87812 0.8777333333333333 2.3019866666666666 0.8777333333333333 3.180106666666666 0l5.205793333333333 -5.203413333333333c0.27613333333333334 -0.27602 0.27613333333333334 -0.7233799999999999 0 -0.9994000000000001 -0.2763333333333333 -0.27623333333333333 -0.7245333333333333 -0.27623333333333333 -1.0009333333333332 0L4.67094 10.657666666666666l-1.17824 -1.1787333333333332 5.205833333333333 -5.20346c0.9271333333333334 -0.9267466666666666 2.4302 -0.9267466666666666 3.3574 0 0.9274 0.9269533333333333 0.9274 2.429993333333333 0 3.3569266666666664l-5.2058 5.2034666666666665c-1.5289466666666665 1.5282 -4.00768 1.5282 -5.5366133333333325 0 -1.5291386666666666 -1.5284666666666666 -1.5291386666666666 -4.006733333333333 0 -5.535133333333333L6.519333333333333 2.097293333333333Z" clip-rule="evenodd" stroke-width="0.6667"></path>
  </g>
</svg>